HIERARCHY
ROOT Hips
{
	OFFSET 0.00000 0.00000 0.00000
	CHANNELS 6 Xposition Yposition Zposition Zrotation Yrotation Xrotation 
	JOINT LHipJoint
	{
		OFFSET 0 0 0
		CHANNELS 3 Zrotation Yrotation Xrotation
		JOINT LeftUpLeg
		{
			OFFSET 1.44960 -1.75505 0.85172
			CHANNELS 3 Zrotation Yrotation Xrotation
			JOINT LeftLeg
			{
				OFFSET 2.40573 -6.60971 0.00000
				CHANNELS 3 Zrotation Yrotation Xrotation
				JOINT LeftFoot
				{
					OFFSET 2.58773 -7.10974 0.00000
					CHANNELS 3 Zrotation Yrotation Xrotation
					JOINT LeftToeBase
					{
						OFFSET 0.18252 -0.50147 1.77316
						CHANNELS 3 Zrotation Yrotation Xrotation
						End Site
						{
							OFFSET 0.00000 -0.00000 0.92990
						}
					}
				}
			}
		}
	}
	JOINT RHipJoint
	{
		OFFSET 0 0 0
		CHANNELS 3 Zrotation Yrotation Xrotation
		JOINT RightUpLeg
		{
			OFFSET -1.40744 -1.75505 0.85172
			CHANNELS 3 Zrotation Yrotation Xrotation
			JOINT RightLeg
			{
				OFFSET -2.43714 -6.69600 0.00000
				CHANNELS 3 Zrotation Yrotation Xrotation
				JOINT RightFoot
				{
					OFFSET -2.51650 -6.91404 0.00000
					CHANNELS 3 Zrotation Yrotation Xrotation
					JOINT RightToeBase
					{
						OFFSET -0.25383 -0.69740 1.96384
						CHANNELS 3 Zrotation Yrotation Xrotation
						End Site
						{
							OFFSET -0.00000 -0.00000 1.04244
						}
					}
				}
			}
		}
	}
	JOINT LowerBack
	{
		OFFSET 0 0 0
		CHANNELS 3 Zrotation Yrotation Xrotation
		JOINT Spine
		{
			OFFSET 0.00579 2.14458 -0.24367
			CHANNELS 3 Zrotation Yrotation Xrotation
			JOINT Spine1
			{
				OFFSET 0.05899 2.16316 -0.04515
				CHANNELS 3 Zrotation Yrotation Xrotation
				JOINT Neck
				{
					OFFSET 0 0 0
					CHANNELS 3 Zrotation Yrotation Xrotation
					JOINT Neck1
					{
						OFFSET -0.01650 1.59577 0.24841
						CHANNELS 3 Zrotation Yrotation Xrotation
						JOINT Head
						{
							OFFSET -0.01016 1.63072 -0.17782
							CHANNELS 3 Zrotation Yrotation Xrotation
							End Site
							{
								OFFSET -0.00250 1.64111 -0.08717
							}
						}
					}
				}
				JOINT LeftShoulder
				{
					OFFSET 0 0 0
					CHANNELS 3 Zrotation Yrotation Xrotation
					JOINT LeftArm
					{
						OFFSET 3.17745 0.95174 -0.45729
						CHANNELS 3 Zrotation Yrotation Xrotation
						JOINT LeftForeArm
						{
							OFFSET 4.93485 -0.00000 0.00000
							CHANNELS 3 Zrotation Yrotation Xrotation
							JOINT LeftHand
							{
								OFFSET 3.41719 -0.00000 -0.00000
								CHANNELS 3 Zrotation Yrotation Xrotation
								JOINT LeftFingerBase
								{
									OFFSET 0 0 0
									CHANNELS 3 Zrotation Yrotation Xrotation
									JOINT LeftHandIndex1
									{
										OFFSET 0.62410 -0.00000 -0.00000
										CHANNELS 3 Zrotation Yrotation Xrotation
										End Site
										{
											OFFSET 0.50317 -0.00000 -0.00000
										}
									}
								}
								JOINT LThumb
								{
									OFFSET 0 0 0
									CHANNELS 3 Zrotation Yrotation Xrotation
									End Site
									{
										OFFSET 0.51085 -0.00000 0.51085
									}
								}
							}
						}
					}
				}
				JOINT RightShoulder
				{
					OFFSET 0 0 0
					CHANNELS 3 Zrotation Yrotation Xrotation
					JOINT RightArm
					{
						OFFSET -2.87924 1.13038 -0.75204
						CHANNELS 3 Zrotation Yrotation Xrotation
						JOINT RightForeArm
						{
							OFFSET -5.22034 -0.00000 0.00000
							CHANNELS 3 Zrotation Yrotation Xrotation
							JOINT RightHand
							{
								OFFSET -3.41809 -0.00000 -0.00000
								CHANNELS 3 Zrotation Yrotation Xrotation
								JOINT RightFingerBase
								{
									OFFSET 0 0 0
									CHANNELS 3 Zrotation Yrotation Xrotation
									JOINT RightHandIndex1
									{
										OFFSET -0.77534 -0.00000 -0.00000
										CHANNELS 3 Zrotation Yrotation Xrotation
										End Site
										{
											OFFSET -0.62510 -0.00000 -0.00000
										}
									}
								}
								JOINT RThumb
								{
									OFFSET 0 0 0
									CHANNELS 3 Zrotation Yrotation Xrotation
									End Site
									{
										OFFSET -0.63464 -0.00000 0.63464
									}
								}
							}
						}
					}
				}
			}
		}
	}
}
MOTION
Frames: 6
Frame Time: .0083333
0.8433 17.4648 -15.6770 -6.0716 4.3073 3.4536 0.0000 0.0000 0.0000 -10.1093 -6.5988 -23.2802 8.3535 16.3732 53.8262 0.7172 -6.6093 -15.1271 0.0196 0.9040 2.4847 0.0000 0.0000 0.0000 31.2295 3.0147 -6.3638 -1.2564 -7.1058 20.0293 -0.7967 -0.2004 -16.9444 -0.5264 -4.6496 12.9118 4.9365 0.0530 4.4929 4.6073 0.4263 0.3868 1.9570 0.1888 -2.1244 -2.8551 -0.2214 -17.5458 -0.0994 0.4911 18.0129 0.4971 0.0236 8.5036 0.0000 0.0000 0.0000 -88.1246 5.5690 26.0660 25.1071 -36.3133 -8.3533 -0.0000 -0.0000 1.7902 3.3182 43.1494 2.2707 -7.1250 0.0000 -0.0000 -46.9664 67.5312 -27.7920 0.0000 0.0000 0.0000 82.8769 2.0594 -14.9335 -8.0202 13.5856 -0.9569 0.0000 0.0000 4.6844 -14.8185 12.6815 -3.3239 7.1250 -0.0000 -0.0000 8.6194 -16.9690 5.7950
0.8404 17.4620 -15.5776 -6.3637 4.4319 3.4818 0.0000 0.0000 0.0000 -9.7346 -7.1542 -23.9837 8.1748 16.2463 53.1898 0.7413 -6.6913 -15.3804 0.1006 2.0455 5.6314 0.0000 0.0000 0.0000 31.6423 3.0195 -6.0126 -1.2507 -7.0903 19.9832 -0.8232 -0.4066 -17.2989 -0.5116 -4.5846 12.7274 5.2362 0.0337 4.3476 4.6530 0.4108 0.2921 1.8387 0.1777 -2.1392 -3.1662 -0.2057 -16.9598 0.4304 0.4597 17.8492 0.7214 0.0461 8.3416 -0.0000 0.0000 0.0000 -88.0179 5.7405 26.3449 25.6855 -36.8965 -8.6981 -0.0000 -0.0000 1.4641 2.7099 42.7517 1.8403 -7.1250 0.0000 -0.0000 -46.8234 67.0774 -27.2366 -0.0000 0.0000 0.0000 82.8481 2.0936 -13.8925 -8.0755 13.6752 -0.9699 0.0000 0.0000 3.4238 -14.8331 13.2447 -3.4722 7.1250 -0.0000 -0.0000 8.6068 -16.3945 5.8951
0.8468 17.4476 -15.4833 -5.9540 4.2226 3.5636 0.0000 0.0000 0.0000 -10.2998 -7.5412 -24.6937 7.9411 16.0758 52.3504 0.7853 -6.0518 -15.7973 0.0603 1.5840 4.3572 0.0000 0.0000 0.0000 31.2819 3.5027 -5.5239 -1.2581 -7.1104 20.0429 -0.8525 -0.6786 -17.7054 -0.5022 -4.5430 12.6096 4.7053 0.0397 4.1695 4.6408 0.3620 0.5255 2.1238 0.1638 -1.8011 -3.1302 -0.3430 -17.9139 0.0253 0.3859 18.0644 0.5719 -0.0331 8.5878 -0.0000 0.0000 0.0000 -88.3769 4.9874 26.1054 25.7007 -36.9117 -8.7073 -0.0000 -0.0000 1.8255 2.4966 43.1510 1.7080 -7.1250 0.0000 -0.0000 -47.7363 67.2777 -28.0701 -0.0000 0.0000 0.0000 82.6002 2.8539 -13.3843 -8.2096 13.8920 -1.0019 0.0000 0.0000 3.3177 -15.2949 13.5528 -3.6668 7.1250 -0.0000 -0.0000 8.2898 -16.0448 5.7367
0.8473 17.4383 -15.3826 -6.3951 4.1305 3.4780 0.0000 0.0000 0.0000 -9.7854 -7.8453 -25.2945 7.7393 15.9241 51.6182 0.8433 -6.4663 -16.3811 0.1287 2.3128 6.3711 0.0000 0.0000 0.0000 31.8790 3.5755 -4.9674 -1.2437 -7.0713 19.9267 -0.8538 -0.9610 -17.8310 -0.4452 -4.2809 11.8682 5.2392 0.0399 4.4041 4.5946 0.4254 0.2516 1.7757 0.1830 -2.2123 -3.4322 -0.3425 -17.3458 0.7723 0.2860 18.1683 0.8615 -0.0218 8.5203 0.0000 -0.0000 0.0000 -88.0891 5.2827 26.2814 25.8476 -37.0578 -8.7956 -0.0000 -0.0000 1.5760 2.6992 42.7857 1.8342 -7.1250 0.0000 -0.0000 -46.8936 67.0970 -27.3044 0.0000 -0.0000 0.0000 82.9454 2.4318 -12.9550 -8.4208 14.2327 -1.0532 0.0000 0.0000 2.7182 -14.8417 13.7947 -3.6154 7.1250 -0.0000 -0.0000 8.6003 -15.8339 5.9962
0.8430 17.4231 -15.2865 -6.0854 4.2386 3.4137 0.0000 0.0000 0.0000 -10.2142 -8.3066 -25.7379 7.4952 15.7351 50.7235 0.8733 -5.8609 -16.6626 0.0755 1.7724 4.8771 0.0000 0.0000 0.0000 31.6700 3.4526 -4.4417 -1.2338 -7.0441 19.8460 -0.8882 -1.0711 -18.2237 -0.4440 -4.2755 11.8531 4.8902 0.1144 4.3375 4.3791 0.4970 0.2419 1.7422 0.2214 -2.1848 -3.0580 -0.4322 -17.2785 0.6950 0.0765 18.1754 0.7481 -0.1026 8.5151 -0.0000 0.0000 0.0000 -87.6388 5.4524 27.1059 26.3742 -37.5758 -9.1149 -0.0000 -0.0000 1.4929 2.2298 43.5251 1.5360 -7.1250 0.0000 -0.0000 -48.6658 67.4402 -28.8877 -0.0000 0.0000 0.0000 83.1878 2.4921 -12.4002 -8.6057 14.5299 -1.0991 0.0000 0.0000 1.9268 -15.1419 14.0885 -3.7687 7.1250 -0.0000 -0.0000 8.3962 -15.5106 5.9098
0.8480 17.4188 -15.1936 -5.9557 4.3259 3.3538 0.0000 0.0000 0.0000 -10.4472 -8.8133 -26.2869 7.2518 15.5403 49.8202 0.9191 -5.5376 -17.1074 0.0270 1.0615 2.9179 0.0000 0.0000 0.0000 31.5694 3.1919 -3.9845 -1.2085 -6.9741 19.6386 -0.9175 -0.9861 -18.4804 -0.5141 -4.5958 12.7592 4.8105 0.0072 4.6503 4.3463 0.3870 0.0579 1.7607 0.1609 -2.5518 -3.2354 -0.2638 -16.9562 0.5628 0.3735 18.3329 0.7692 0.0093 8.5056 -0.0000 -0.0000 0.0000 -87.7004 5.7554 27.2933 26.8324 -38.0189 -9.3957 -0.0000 -0.0000 1.4042 2.3743 42.8042 1.6138 -7.1250 0.0000 -0.0000 -47.2304 67.0098 -27.4473 -0.0000 -0.0000 0.0000 83.1296 2.2751 -11.7439 -8.8304 14.8897 -1.1561 0.0000 0.0000 1.4705 -15.1401 13.4265 -3.5949 7.1250 -0.0000 -0.0000 8.3957 -16.1857 5.7858
